#!OML:ASF I:\Actors\actors\Patient Classification 2\Patient 1\Session 1\actor1.ASF
:FULLY-SPECIFIED
:DEGREES
240
root -0.815348 18.0353 6.21209 -0.908713 -17.5581 -5.07462
lowerback 9.35846 -1.95939 1.43855
upperback 0.958981 -2.30632 3.79919
thorax -4.14876 -1.14708 3.44347
lowerneck -15.5108 4.08879 9.56378
upperneck 5.9974 4.06908 -5.342
head 4.60353 1.89862 -2.85492
rclavicle 6.05548e-014 -1.59028e-014
rhumerus -26.6713 -1.29613 -35.3851
rradius 78.0863
rwrist -41.4755
rhand -8.36244 -43.112
rfingers 7.12502
rthumb 17.5601 -72.3389
lclavicle 6.05548e-014 -1.59028e-014
lhumerus -15.965 -21.5449 73.9875
lradius 71.793
lwrist 20.6248
lhand -7.86282 -21.6563
lfingers 7.12502
lthumb 18.0408 7.52698
rfemur 14.8078 18.4378 22.4372
rtibia -8.01031
rfoot -14.7353 -16.4828
rtoes 0.0906912
lfemur 24.4114 4.00394 -13.5094
ltibia -19.2738
lfoot -7.4904 23.5723
ltoes -4.50251
241
root -0.815646 18.0318 6.20952 -1.03398 -17.3447 -4.99381
lowerback 9.61731 -2.10098 1.60085
upperback 0.98883 -2.46652 3.85376
thorax -4.25893 -1.22832 3.44129
lowerneck -15.7594 4.10952 9.59166
upperneck 6.08522 4.09315 -5.57632
head 4.67828 1.89359 -2.92841
rclavicle 6.25675e-014 -2.38542e-015
rhumerus -27.7169 -0.873617 -36.5828
rradius 78.4299
rwrist -41.2574
rhand -8.62568 -43.9152
rfingers 7.12502
rthumb 17.3067 -73.1647
lclavicle 6.25675e-014 -2.38542e-015
lhumerus -16.5474 -22.175 74.9424
lradius 71.9633
lwrist 20.5964
lhand -8.07892 -21.908
lfingers 7.12502
lthumb 17.8329 7.29437
rfemur 15.0503 18.1377 22.3717
rtibia -8.22241
rfoot -14.5795 -16.4759
rtoes -0.0640058
lfemur 24.4888 4.11404 -13.5067
ltibia -19.3064
lfoot -7.28858 23.2399
ltoes -4.81764
242
root -0.819144 18.03 6.20835 -1.10031 -17.0479 -4.93759
lowerback 9.81521 -2.2385 1.71697
upperback 0.989373 -2.62507 3.94278
thorax -4.36257 -1.30768 3.50035
lowerneck -15.9644 4.11357 9.51822
upperneck 6.11369 4.11049 -5.73016
head 4.72325 1.88744 -2.96166
rclavicle 2.5842e-015 1.11319e-014
rhumerus -28.7473 -0.371299 -37.6974
rradius 78.6678
rwrist -40.7425
rhand -8.74966 -44.0986
rfingers 7.12502
rthumb 17.1874 -73.3584
lclavicle 2.5842e-015 1.11319e-014
lhumerus -17.1323 -22.6962 75.9797
lradius 72.0157
lwrist 20.2815
lhand -8.13437 -22.2624
lfingers 7.12502
lthumb 17.7795 6.94484
rfemur 15.2279 17.7559 22.3106
rtibia -8.39855
rfoot -14.4533 -16.4479
rtoes -0.272354
lfemur 24.5137 4.17238 -13.4642
ltibia -19.361
lfoot -7.12631 22.8795
ltoes -4.9564
243
root -0.820216 18.0289 6.20336 -1.13702 -16.8164 -4.88523
lowerback 9.97571 -2.31977 1.80012
upperback 1.05006 -2.71569 4.04319
thorax -4.38346 -1.35362 3.57746
lowerneck -16.28 4.10951 9.48495
upperneck 6.05427 4.10212 -5.94783
head 4.75868 1.86253 -3.02316
rclavicle 1.17283e-014 -1.59028e-015
rhumerus -29.6701 -0.0455074 -38.7852
rradius 78.8511
rwrist -40.2727
rhand -8.98689 -44.1873
rfingers 7.12502
rthumb 16.9591 -73.4669
lclavicle 1.17283e-014 -1.59028e-015
lhumerus -17.591 -23.0877 76.999
lradius 72.0599
lwrist 19.8363
lhand -7.94274 -22.4127
lfingers 7.12502
lthumb 17.9639 6.77766
rfemur 15.3165 17.4466 22.2237
rtibia -8.50655
rfoot -14.3782 -16.4116
rtoes -0.500547
lfemur 24.5094 4.23456 -13.448
ltibia -19.4321
lfoot -6.96918 22.6255
ltoes -5.23109
244
root -0.8175 18.0282 6.19727 -1.13748 -16.6392 -4.86019
lowerback 10.148 -2.38669 1.93151
upperback 1.1046 -2.78138 4.12428
thorax -4.4216 -1.38795 3.60509
lowerneck -16.639 4.09457 9.50333
upperneck 6.04048 4.06774 -6.18469
head 4.81468 1.82433 -3.1013
rclavicle -5.397e-014 1.35174e-014
rhumerus -30.5293 0.172423 -39.9467
rradius 79.0014
rwrist -39.8935
rhand -9.24247 -44.164
rfingers 7.12502
rthumb 16.713 -73.4646
lclavicle -5.397e-014 1.35174e-014
lhumerus -18.1176 -23.4639 77.9913
lradius 72.1336
lwrist 19.7318
lhand -7.87504 -22.5615
lfingers 7.12502
lthumb 18.0291 6.62292
rfemur 15.3246 17.1971 22.1381
rtibia -8.55664
rfoot -14.3065 -16.3384
rtoes -0.564491
lfemur 24.4787 4.27917 -13.4411
ltibia -19.513
lfoot -6.79241 22.4578
ltoes -5.54217
245
root -0.813182 18.0283 6.19361 -1.10752 -16.4431 -4.83348
lowerback 10.3032 -2.45566 2.08482
upperback 1.12701 -2.84606 4.20238
thorax -4.48521 -1.42183 3.61788
lowerneck -16.9802 4.0761 9.48194
upperneck 6.06926 4.04126 -6.42369
head 4.88102 1.78916 -3.17357
rclavicle -6.88292e-014 9.54166e-015
rhumerus -31.404 0.377521 -41.1293
rradius 79.1904
rwrist -39.5397
rhand -9.46214 -44.0464
rfingers 7.12502
rthumb 16.5015 -73.3647
lclavicle -6.88292e-014 9.54166e-015
lhumerus -18.7491 -23.8673 79.0179
lradius 72.1795
lwrist 19.7866
lhand -7.95156 -22.8128
lfingers 7.12502
lthumb 17.9554 6.37832
rfemur 15.2601 16.9317 22.0339
rtibia -8.53878
rfoot -14.2501 -16.2243
rtoes -0.45194
lfemur 24.4218 4.25376 -13.4652
ltibia -19.6142
lfoot -6.60263 22.3601
ltoes -5.90256
246
root -0.809043 18.028 6.19007 -1.10539 -16.2275 -4.81015
lowerback 10.4389 -2.50743 2.21374
upperback 1.17974 -2.89221 4.28864
thorax -4.5054 -1.44649 3.64836
lowerneck -17.2461 4.06746 9.40276
upperneck 5.99773 4.04042 -6.62193
head 4.90398 1.76789 -3.2221
rclavicle 3.73218e-014 3.18055e-015
rhumerus -32.2981 0.504403 -42.2663
rradius 79.3823
rwrist -39.0452
rhand -9.28259 -43.876
rfingers 7.12502
rthumb 16.6744 -73.1798
lclavicle 3.73218e-014 3.18055e-015
lhumerus -19.3633 -24.2257 80.0446
lradius 72.2002
lwrist 19.6768
lhand -7.95706 -22.9189
lfingers 7.12502
lthumb 17.9502 6.27275
rfemur 15.1865 16.6462 21.9399
rtibia -8.43089
rfoot -14.2799 -16.108
rtoes -0.319872
lfemur 24.409 4.17929 -13.4926
ltibia -19.7367
lfoot -6.40594 22.302
ltoes -6.25562
247
root -0.804282 18.0284 6.18695 -1.10169 -15.983 -4.81599
lowerback 10.5301 -2.54818 2.33988
upperback 1.254 -2.92679 4.38262
thorax -4.47818 -1.4657 3.68362
lowerneck -17.4132 4.05114 9.28284
upperneck 5.81114 4.0335 -6.72791
head 4.87173 1.7497 -3.23618
rclavicle -2.50469e-014 8.74653e-015
rhumerus -33.1216 0.580591 -43.3457
rradius 79.4362
rwrist -38.4114
rhand -8.71352 -43.7567
rfingers 7.12502
rthumb 17.2222 -73.0136
lclavicle -2.50469e-014 8.74653e-015
lhumerus -19.9425 -24.4567 81.0828
lradius 72.1766
lwrist 19.4576
lhand -7.83205 -22.8761
lfingers 7.12502
lthumb 18.0704 6.30447
rfemur 15.1135 16.3314 21.8733
rtibia -8.28769
rfoot -14.341 -15.9968
rtoes -0.336034
lfemur 24.3982 4.14645 -13.4758
ltibia -19.8542
lfoot -6.18891 22.1469
ltoes -6.58558
248
root -0.797525 18.0309 6.18281 -1.05087 -15.6885 -4.81692
lowerback 10.6395 -2.56936 2.49506
upperback 1.28273 -2.92922 4.45011
thorax -4.51315 -1.46891 3.67322
lowerneck -17.6666 3.98817 9.24553
upperneck 5.75255 3.94811 -6.88232
head 4.88956 1.69132 -3.28615
rclavicle -2.98177e-016 -1.66979e-014
rhumerus -33.9695 0.689747 -44.4262
rradius 79.5935
rwrist -38.0795
rhand -8.41701 -43.8867
rfingers 7.12502
rthumb 17.5076 -73.1184
lclavicle -2.98177e-016 -1.66979e-014
lhumerus -20.5877 -24.7022 82.1332
lradius 72.1433
lwrist 19.2694
lhand -7.67789 -22.8015
lfingers 7.12502
lthumb 18.2187 6.3653
rfemur 14.9758 15.9701 21.7804
rtibia -8.13897
rfoot -14.3555 -15.8974
rtoes -0.523715
lfemur 24.3077 4.10707 -13.4659
ltibia -19.966
lfoot -6.00172 21.9242
ltoes -6.6645
